HIERARCHY
ROOT Hips
{
	OFFSET -0.179506 -22.333345 2.821913
	CHANNELS 6 Xposition Yposition Zposition Zrotation Yrotation Xrotation 
	JOINT LeftUpLeg
	{
		OFFSET 6.951974 -9.140623 -0.681533
		CHANNELS 3 Zrotation Yrotation Xrotation
		JOINT LeftLeg
		{
			OFFSET 3.427654 -37.519855 -0.449580
			CHANNELS 3 Zrotation Yrotation Xrotation
			JOINT LeftFoot
			{
				OFFSET -1.359570 -39.796059 -4.369333
				CHANNELS 3 Zrotation Yrotation Xrotation
				JOINT LeftToe
				{
					OFFSET 2.635814 -5.579078 11.928840
					CHANNELS 3 Zrotation Yrotation Xrotation
					End Site
					{
						OFFSET 0.000000 0.000000 0.000000
					}
				}
			}
		}
	}
	JOINT RightUpLeg
	{
		OFFSET -6.767048 -9.052170 -0.431982
		CHANNELS 3 Zrotation Yrotation Xrotation
		JOINT RightLeg
		{
			OFFSET -3.829005 -38.256897 -0.885003
			CHANNELS 3 Zrotation Yrotation Xrotation
			JOINT RightFoot
			{
				OFFSET 1.577377 -39.841461 -4.231180
				CHANNELS 3 Zrotation Yrotation Xrotation
				JOINT RightToe
				{
					OFFSET -2.537174 -4.814398 12.334795
					CHANNELS 3 Zrotation Yrotation Xrotation
					End Site
					{
						OFFSET 0.000000 0.000000 0.000000
					}
				}
			}
		}
	}
	JOINT Spine
	{
		OFFSET -0.253288 10.896323 -2.669631
		CHANNELS 3 Zrotation Yrotation Xrotation
		JOINT Spine1
		{
			OFFSET 0.548704 13.518043 0.109247
			CHANNELS 3 Zrotation Yrotation Xrotation
			JOINT Spine2
			{
				OFFSET 0.145701 5.292222 2.542457
				CHANNELS 3 Zrotation Yrotation Xrotation
				JOINT Neck
				{
					OFFSET -0.277840 21.387037 -4.285703
					CHANNELS 3 Zrotation Yrotation Xrotation
					JOINT Head
					{
						OFFSET 0.515184 6.496960 5.134897
						CHANNELS 3 Zrotation Yrotation Xrotation
						End Site
						{
							OFFSET 0.000000 0.000000 0.000000
						}
					}
				}
				JOINT LeftShoulder
				{
					OFFSET 7.884473 12.174932 -3.408961
					CHANNELS 3 Zrotation Yrotation Xrotation
					JOINT LeftArm
					{
						OFFSET 9.097692 3.046888 -0.886815
						CHANNELS 3 Zrotation Yrotation Xrotation
						JOINT LeftForeArm
						{
							OFFSET 25.961220 -1.277207 -2.745643
							CHANNELS 3 Zrotation Yrotation Xrotation
							JOINT LeftHand
							{
								OFFSET 24.923361 0.898606 -0.117091
								CHANNELS 3 Zrotation Yrotation Xrotation
								End Site
								{
									OFFSET 0.000000 0.000000 0.000000
								}
							}
						}
					}
				}
				JOINT RightShoulder
				{
					OFFSET -8.175920 11.883285 -3.861528
					CHANNELS 3 Zrotation Yrotation Xrotation
					JOINT RightArm
					{
						OFFSET -9.601238 3.255117 -0.914307
						CHANNELS 3 Zrotation Yrotation Xrotation
						JOINT RightForeArm
						{
							OFFSET -25.374195 -1.332924 -2.140099
							CHANNELS 3 Zrotation Yrotation Xrotation
							JOINT RightHand
							{
								OFFSET -25.529810 0.777228 -0.555919
								CHANNELS 3 Zrotation Yrotation Xrotation
								End Site
								{
									OFFSET 0.000000 0.000000 0.000000
								}
							}
						}
					}
				}
			}
		}
	}
}
MOTION
Frames: 17
Frame Time: 0.033333
48.763039 56.126888 91.822723 -174.304148 1.788578 90.471397 3.327504 2.146045 1.967730 -7.054252 -5.981201 -6.005598 5.033608 8.543750 -5.990359 nan nan nan -10.506438 -4.798839 -3.080477 2.747363 -1.668414 3.576386 5.700272 -6.512524 -4.418059 nan nan nan -3.016732 2.200305 2.627805 0.575038 -3.031770 6.167085 0.348742 -0.429820 -3.897065 -2.482716 1.562131 -0.083979 1.389558 -1.158033 10.143427 -28.879855 -5.223327 4.110574 -53.297885 -8.376674 16.686698 5.041670 -14.340079 11.761874 -14.745564 -15.270261 4.980485 31.474861 6.807530 5.924912 54.951062 5.494821 15.191946 -12.611964 22.569517 -1.633234 11.844806 8.708364 -1.938205 
48.675373 56.144844 91.819832 -174.275028 1.882062 90.455403 3.366205 2.180217 1.971723 -7.039981 -5.977457 -5.953060 5.059031 8.504667 -5.987351 nan nan nan -10.428051 -4.778822 -3.091262 2.689448 -1.624205 3.613682 5.664422 -6.509543 -4.416967 nan nan nan -3.097098 2.229196 2.635840 0.574242 -3.005161 6.204806 0.331257 -0.453558 -3.941877 -2.569276 1.577751 -0.080158 1.351526 -1.179560 10.178653 -28.914072 -5.231430 4.052283 -53.148887 -8.327394 16.705624 5.115097 -14.131433 11.625538 -14.766988 -15.331716 5.087874 31.523056 6.828048 5.850457 54.940555 5.413426 15.274378 -12.580423 22.665342 -1.613784 11.845041 8.758197 -1.886065 
48.596603 56.152702 91.815735 -174.222590 1.950067 90.470471 3.379732 2.178986 1.938155 -7.021331 -6.022237 -5.921652 5.054646 8.511480 -6.008647 nan nan nan -10.372289 -4.753472 -3.147481 2.631269 -1.598686 3.736863 5.556542 -6.468370 -4.454334 nan nan nan -3.146112 2.201826 2.667218 0.517947 -3.009637 6.158163 0.287095 -0.452604 -3.941869 -2.647861 1.602472 -0.086994 1.345403 -1.179845 10.216148 -28.877512 -5.171319 3.964584 -53.044284 -8.300558 16.727237 5.202880 -13.898726 11.583255 -14.952594 -15.393105 5.092918 31.525191 6.809251 5.792658 54.963211 5.405258 15.350913 -12.465902 22.781662 -1.519729 11.829327 8.749402 -1.948489 
48.496937 56.162514 91.818817 -174.133411 1.999473 90.473456 3.355901 2.162182 1.959139 -6.986803 -6.074528 -5.964050 5.055295 8.500983 -6.004500 nan nan nan -10.399703 -4.789244 -3.200247 2.662868 -1.671804 3.941609 5.503749 -6.428476 -4.442632 nan nan nan -3.150147 2.099873 2.711140 0.435408 -3.084393 6.104262 0.211442 -0.394574 -3.934368 -2.714023 1.632666 -0.086754 1.281859 -1.171027 10.248471 -28.882055 -5.142709 3.947563 -52.886327 -8.231179 16.641935 5.265927 -13.788022 11.440272 -14.994246 -15.303343 4.983686 31.505374 6.828577 5.804366 54.995532 5.486852 15.347424 -12.298389 22.851153 -1.399058 11.826762 8.632235 -1.906568 
48.401859 56.185368 91.828598 -174.034303 2.047589 90.477495 3.351852 2.120794 2.010528 -6.983082 -6.046276 -6.039879 5.025453 8.428561 -5.978632 nan nan nan -10.444520 -4.755734 -3.193793 2.713727 -1.726761 3.983460 5.611147 -6.423964 -4.303978 nan nan nan -3.189871 2.043060 2.689533 0.372060 -3.148327 6.212467 0.150899 -0.345427 -4.038765 -2.785188 1.697139 -0.022308 1.256041 -1.218341 10.234633 -28.870019 -5.164134 3.944476 -52.742097 -8.154415 16.507249 5.310066 -13.655752 11.221909 -15.020171 -15.264097 4.964509 31.599544 6.868117 5.864985 54.933025 5.501344 15.315921 -12.217624 22.943949 -1.285240 11.732426 8.540109 -1.637867 
48.331516 56.209824 91.834724 -174.002946 2.115554 90.500641 3.370471 2.087716 2.049784 -6.951725 -6.035516 -6.094752 5.041214 8.383727 -5.947836 nan nan nan -10.402036 -4.679086 -3.213920 2.680854 -1.690651 3.992139 5.721425 -6.460306 -4.222220 nan nan nan -3.294341 2.100149 2.592852 0.359739 -3.129793 6.369582 0.147401 -0.367992 -4.137558 -2.881706 1.758962 0.045213 1.322882 -1.241815 10.231343 -28.797866 -5.195873 3.961404 -52.781501 -8.191820 16.403965 5.560027 -13.350906 11.023192 -15.232804 -15.245555 5.068461 31.710339 6.873609 5.885253 54.847025 5.470462 15.323101 -12.211722 23.059492 -1.191991 11.811336 8.624197 -1.465179 
48.258129 56.232006 91.843399 -174.042397 2.179110 90.447642 3.400293 2.093285 2.205911 -6.940196 -6.109303 -6.180257 5.079237 8.391168 -5.912994 nan nan nan -10.356112 -4.636367 -3.196724 2.639018 -1.597330 4.066288 5.689628 -6.457292 -4.149862 nan nan nan -3.398998 2.187400 2.647607 0.350645 -3.032299 6.345199 0.168165 -0.416557 -4.118118 -2.944533 1.715531 0.026364 1.377556 -1.214628 10.366610 -28.832988 -5.183100 3.963931 -52.721779 -8.246947 16.368963 5.740816 -13.094173 11.029364 -15.312723 -15.199743 5.106889 31.772919 6.839875 5.845781 54.783939 5.437391 15.388368 -12.196040 23.210716 -1.141781 12.102288 8.744723 -1.541212 
48.176292 56.251465 91.849251 -174.043960 2.231369 90.405767 3.421328 2.121779 2.340292 -6.970620 -6.083680 -6.305643 5.132943 8.379729 -5.915303 nan nan nan -10.354907 -4.649182 -3.174655 2.644487 -1.576675 4.105293 5.638307 -6.434943 -4.016831 nan nan nan -3.469921 2.181646 2.735201 0.334494 -2.978055 6.181784 0.151060 -0.432642 -4.012812 -2.961308 1.724465 -0.008188 1.340404 -1.103057 10.534327 -28.900990 -5.124633 3.933087 -52.521649 -8.217699 16.399859 5.699153 -13.028863 11.115552 -15.179221 -15.226802 5.056683 31.791194 6.807762 5.787342 54.778340 5.450178 15.477994 -12.173531 23.302978 -1.160157 12.261253 8.834594 -1.650830 
48.112137 56.276997 91.847977 -174.033395 2.270696 90.406002 3.417695 2.129417 2.398646 -6.952555 -6.117188 -6.399023 5.192604 8.380884 -5.932199 nan nan nan -10.374420 -4.657967 -3.172239 2.677303 -1.606432 4.136960 5.647878 -6.402206 -3.942592 nan nan nan -3.543225 2.147330 2.704129 0.296603 -2.978202 6.175813 0.125315 -0.418186 -3.993020 -2.998205 1.824646 0.031797 1.299832 -1.047320 10.546118 -28.904019 -5.127978 3.936881 -52.328844 -8.140097 16.352019 5.622978 -12.982936 10.980879 -15.098353 -15.325446 5.057862 31.814387 6.839572 5.793706 54.807518 5.513085 15.487736 -12.155858 23.331949 -1.188619 12.167794 8.882585 -1.633573 
48.061100 56.300072 91.849609 -174.048446 2.319066 90.429535 3.425890 2.105168 2.390257 -6.929689 -6.258743 -6.397303 5.244939 8.450959 -5.963392 nan nan nan -10.370153 -4.648572 -3.232025 2.692282 -1.604612 4.232546 5.698820 -6.373926 -3.922500 nan nan nan -3.580926 2.159620 2.643422 0.247036 -2.963754 6.233909 0.083944 -0.383480 -4.013272 -3.073886 1.871737 0.027074 1.308932 -1.121498 10.516209 -28.850266 -5.202715 3.915942 -52.223419 -8.067468 16.362446 5.591527 -12.856792 10.794348 -14.953034 -15.300350 5.037996 31.796254 6.881843 5.790946 54.876488 5.551834 15.469519 -12.122275 23.331987 -1.235948 12.002144 8.910547 -1.712115 
48.009415 56.325100 91.859047 -174.057032 2.376770 90.412141 3.428647 2.091832 2.416882 -6.885910 -6.342951 -6.389815 5.248786 8.525481 -6.017120 nan nan nan -10.337011 -4.617355 -3.243691 2.674285 -1.563726 4.319719 5.764871 -6.401379 -3.958898 nan nan nan -3.610787 2.163666 2.662567 0.191524 -2.945362 6.206683 0.061845 -0.338036 -3.965739 -3.097424 1.945804 -0.112220 1.267537 -1.115457 10.649469 -28.793624 -5.256425 3.868145 -52.163457 -8.009932 16.395657 5.642848 -12.775023 10.809176 -14.947123 -15.209173 4.968082 31.834951 6.918790 5.786048 54.817193 5.538354 15.537689 -12.059064 23.409702 -1.127199 12.093114 8.863028 -1.776585 
47.943382 56.341949 91.867416 -174.015111 2.429727 90.430666 3.379276 2.078799 2.365169 -6.784109 -6.316412 -6.314634 5.258019 8.514127 -6.042896 nan nan nan -10.304562 -4.621376 -3.303418 2.637166 -1.641113 4.441661 5.824870 -6.420130 -3.924153 nan nan nan -3.642543 2.185600 2.618890 0.157762 -2.946380 6.310462 0.020084 -0.338089 -4.016642 -3.121724 2.033348 -0.155129 1.232454 -1.097704 10.650558 -28.745414 -5.321696 3.888521 -52.081333 -7.992771 16.350175 5.662383 -12.770585 10.691140 -15.202293 -15.234968 4.982415 31.905391 6.988373 5.811216 54.733816 5.466936 15.552379 -12.052320 23.555050 -1.092933 12.323802 8.897765 -1.640625 
47.865757 56.356293 91.865807 -173.979352 2.470613 90.459927 3.328357 2.095512 2.332420 -6.715082 -6.261645 -6.281222 5.271315 8.486088 -6.053885 nan nan nan -10.297607 -4.646384 -3.363400 2.636196 -1.680645 4.524118 5.879734 -6.391923 -3.848902 nan nan nan -3.700748 2.232635 2.566292 0.156567 -2.945358 6.443096 -0.028153 -0.350930 -4.147957 -3.166569 2.030281 -0.090564 1.209904 -1.115032 10.598082 -28.714495 -5.351196 3.924274 -51.980567 -7.989243 16.301954 5.604666 -12.769064 10.550829 -15.317018 -15.198970 5.143341 31.938656 6.982820 5.790586 54.711007 5.429218 15.498316 -12.034914 23.648377 -1.133977 12.412956 8.852612 -1.412623 
47.802555 56.383041 91.859360 -173.990991 2.512443 90.451849 3.374028 2.133916 2.410258 -6.786281 -6.212187 -6.356595 5.248732 8.474981 -6.006403 nan nan nan -10.275974 -4.683918 -3.352850 2.633756 -1.645836 4.579084 6.000949 -6.353994 -3.830321 nan nan nan -3.790505 2.267694 2.566584 0.146949 -2.914085 6.493647 -0.035239 -0.368618 -4.214044 -3.213131 1.995826 -0.098344 1.156742 -1.175844 10.621699 -28.693720 -5.322160 3.920529 -51.866817 -7.957021 16.266635 5.523302 -12.771020 10.564313 -15.180635 -15.081946 5.268004 32.009883 6.940729 5.749229 54.653136 5.437861 15.492429 -11.979919 23.713501 -1.087835 12.314088 8.739589 -1.233103 
47.760223 56.439419 91.857826 -174.075522 2.521866 90.370024 3.424012 2.145818 2.667364 -6.871237 -6.214616 -6.582201 5.217459 8.531351 -5.893907 nan nan nan -10.276960 -4.667417 -3.262500 2.609351 -1.569106 4.625311 6.081826 -6.305796 -3.860004 nan nan nan -3.921948 2.270308 2.546719 0.087526 -2.798087 6.580667 -0.006833 -0.356986 -4.175838 -3.220446 2.018719 -0.266351 1.131972 -1.226424 10.802759 -28.691269 -5.324163 3.940212 -51.707220 -7.961337 16.154082 5.453854 -12.778095 10.594443 -15.087972 -15.029608 5.216004 32.102945 6.979265 5.812018 54.628066 5.518207 15.505213 -12.003071 23.706061 -1.030524 12.166405 8.670698 -1.159289 
47.727951 56.486202 91.866730 -174.119567 2.537081 90.300820 3.455473 2.124434 2.860731 -6.921711 -6.255725 -6.727743 5.210519 8.578992 -5.838993 nan nan nan -10.274862 -4.692480 -3.207716 2.582629 -1.521621 4.693992 6.070485 -6.267731 -3.839455 nan nan nan -4.046556 2.302402 2.566145 0.042918 -2.704779 6.527885 0.036434 -0.372763 -4.060347 -3.228657 2.038318 -0.442198 1.094614 -1.196361 11.024383 -28.701151 -5.319966 3.975625 -51.590535 -8.012518 16.046182 5.475397 -12.771759 10.637053 -15.039081 -15.031444 5.091631 32.091643 6.994198 5.883559 54.711912 5.644629 15.495925 -12.063208 23.644882 -0.985589 12.105169 8.681014 -1.262281 
47.668968 56.466721 91.869720 -173.983161 2.608092 90.405637 3.455961 2.067319 2.611194 -6.883115 -6.315764 -6.529353 5.275399 8.567112 -5.889108 nan nan nan -10.263169 -4.731742 -3.356733 2.632710 -1.610346 4.816124 6.077789 -6.310441 -3.791179 nan nan nan -4.032823 2.331737 2.565280 0.043621 -2.767207 6.405259 0.002563 -0.423435 -4.025233 -3.288136 2.077328 -0.438709 1.083098 -1.149215 11.024005 -28.684806 -5.327806 3.979311 -51.619721 -8.024981 16.040087 5.676834 -12.735426 10.470254 -14.997847 -15.007432 5.142949 32.055606 7.019431 5.873486 54.765121 5.649855 15.498233 -12.138391 23.649490 -1.005117 12.042868 8.715679 -1.295984 
